
<svg xmlns="http://www.w3.org/2000/svg" viewBox="0 0 640 512" fill="#00ffcc">
  <path d="M480 96h-82.4l-32-32H274.4l-32 32H160C71.6 96 0 167.6 0 256s71.6 160 160 160h16c17.7 0 32-14.3 32-32v-64h224v64c0 17.7 14.3 32 32 32h16c88.4 0 160-71.6 160-160s-71.6-160-160-160zM192 288h-32v32c0 8.8-7.2 16-16 16s-16-7.2-16-16v-32H96c-8.8 0-16-7.2-16-16s7.2-16 16-16h32v-32c0-8.8 7.2-16 16-16s16 7.2 16 16v32h32c8.8 0 16 7.2 16 16s-7.2 16-16 16zm256 32c-17.7 0-32-14.3-32-32s14.3-32 32-32 32 14.3 32 32-14.3 32-32 32zm64-64c-17.7 0-32-14.3-32-32s14.3-32 32-32 32 14.3 32 32-14.3 32-32 32z"/>
</svg>
